<svg width="122" height="40" viewBox="0 0 122 40" fill="none" xmlns="http://www.w3.org/2000/svg">
<path d="M0 5.95396H6.97794V33.8097H0V5.95396Z" fill="#1D9BF0"/>
<path d="M20.6087 13.9694L15.9177 18.5552L7.55533 10.4838L12.2463 5.8979L20.6087 13.9694Z" fill="#1D9BF0"/>
<path d="M20.5442 13.8383L20.5442 22.9924L15.5995 18.3259L20.5442 13.8383Z" fill="#1D9BF0"/>
<path d="M6.83456 5.88235L12.2831 5.88235L7.69486 10.4573L6.83456 9.7609V5.88235Z" fill="#1D9BF0"/>
<path d="M23.6103 5.95396H30.5882V34.0882H23.6103V5.95396Z" fill="#1D9BF0"/>
<path d="M23.6103 33.9954L18.4963 33.9954L23.1087 29.4942L23.9578 30.2033L23.6103 33.9954Z" fill="#1D9BF0"/>
<path d="M10.0846 26.1029L9.90582 16.8091L14.8324 21.4936L10.0846 26.1029Z" fill="#1D9BF0"/>
<path d="M23.0902 29.5318L18.3992 34.1176L10.0368 26.0462L14.7278 21.4603L23.0902 29.5318Z" fill="#1D9BF0"/>
<path d="M46.6719 30.9804C44.8722 30.9804 43.3708 30.6336 42.1677 29.9401C40.9746 29.237 40.0797 28.3123 39.4831 27.1661C38.8865 26.0103 38.5883 24.7485 38.5883 23.3808C38.5883 22.0612 38.8667 20.8428 39.4235 19.7255C39.9902 18.6082 40.8155 17.7124 41.8993 17.0382C42.983 16.3543 44.3054 16.0124 45.8665 16.0124C47.2983 16.0124 48.4914 16.2965 49.4459 16.8648C50.4005 17.4331 51.1163 18.194 51.5936 19.1476C52.0709 20.0915 52.3095 21.1366 52.3095 22.2828C52.3095 22.6006 52.2896 22.9233 52.2498 23.2508C52.2101 23.5686 52.1504 23.9009 52.0709 24.2477H42.4362C42.5754 25.1434 42.8637 25.8706 43.3012 26.4293C43.7486 26.9783 44.2905 27.3829 44.9269 27.6429C45.5732 27.903 46.2642 28.033 47 28.033C47.865 28.033 48.6704 27.9271 49.4161 27.7152C50.1618 27.4936 50.8479 27.2047 51.4743 26.8483L51.6533 29.8823C51.0865 30.1713 50.3806 30.4265 49.5354 30.6481C48.6903 30.8696 47.7358 30.9804 46.6719 30.9804ZM42.5257 21.8204H48.5511C48.5511 21.387 48.4666 20.9535 48.2975 20.5201C48.1285 20.077 47.8451 19.7062 47.4474 19.4076C47.0596 19.109 46.5327 18.9597 45.8665 18.9597C44.912 18.9597 44.1613 19.2294 43.6144 19.7688C43.0675 20.3082 42.7046 20.9921 42.5257 21.8204Z" fill="#F5F8FA"/>
<path d="M55.2073 30.6914V16.2435H58.6675L58.8166 18.9308L57.9516 17.8328C58.5183 17.3705 59.1944 16.9515 59.9799 16.5758C60.7654 16.2002 61.6802 16.0124 62.7242 16.0124C64.6332 16.0124 66.0501 16.6288 66.9748 17.8617C67.8995 19.085 68.3618 20.6742 68.3618 22.6295V30.6914H64.663V22.9185C64.663 21.57 64.4294 20.5731 63.9621 19.9277C63.5047 19.2824 62.754 18.9597 61.71 18.9597C60.8648 18.9597 60.1738 19.162 59.6369 19.5665C59.1 19.9615 58.6277 20.4912 58.22 21.1558L58.9061 19.3932V30.6914H55.2073Z" fill="#F5F8FA"/>
<path d="M79.2272 30.9804C77.4275 30.9804 75.9261 30.6336 74.723 29.9401C73.5299 29.237 72.635 28.3123 72.0384 27.1661C71.4419 26.0103 71.1436 24.7485 71.1436 23.3808C71.1436 22.0612 71.422 20.8428 71.9788 19.7255C72.5455 18.6082 73.3708 17.7124 74.4546 17.0382C75.5384 16.3543 76.8608 16.0124 78.4218 16.0124C79.8536 16.0124 81.0467 16.2965 82.0013 16.8648C82.9558 17.4331 83.6717 18.194 84.1489 19.1476C84.6262 20.0915 84.8648 21.1366 84.8648 22.2828C84.8648 22.6006 84.8449 22.9233 84.8052 23.2508C84.7654 23.5686 84.7057 23.9009 84.6262 24.2477H74.9915C75.1307 25.1434 75.419 25.8706 75.8565 26.4293C76.304 26.9783 76.8459 27.3829 77.4822 27.6429C78.1285 27.903 78.8195 28.033 79.5553 28.033C80.4203 28.033 81.2257 27.9271 81.9714 27.7152C82.7172 27.4936 83.4032 27.2047 84.0296 26.8483L84.2086 29.8823C83.6418 30.1713 82.9359 30.4265 82.0907 30.6481C81.2456 30.8696 80.2911 30.9804 79.2272 30.9804ZM75.081 21.8204H81.1064C81.1064 21.387 81.0219 20.9535 80.8529 20.5201C80.6838 20.077 80.4005 19.7062 80.0027 19.4076C79.615 19.109 79.088 18.9597 78.4218 18.9597C77.4673 18.9597 76.7166 19.2294 76.1697 19.7688C75.6229 20.3082 75.26 20.9921 75.081 21.8204Z" fill="#F5F8FA"/>
<path d="M88.6575 30.6914V19.1909H86.5397L86.8678 16.2435H88.6575V13.1806C88.6575 11.9092 89.0453 10.8978 89.8208 10.1465C90.6063 9.39524 91.7299 9.01959 93.1915 9.01959C93.6687 9.01959 94.1062 9.04367 94.5039 9.09183C94.9116 9.13999 95.2795 9.2026 95.6076 9.27965L95.2795 12.1692C95.1304 12.1211 94.9663 12.0874 94.7873 12.0681C94.6083 12.0392 94.3846 12.0248 94.1162 12.0248C93.5793 12.0248 93.1517 12.1644 92.8335 12.4437C92.5154 12.7231 92.3563 13.1806 92.3563 13.8163V16.2435H95.6374V19.1909H92.3563V30.6914H88.6575Z" fill="#F5F8FA"/>
<path d="M103.135 30.9804C102.2 30.9804 101.439 30.7974 100.853 30.4314C100.266 30.0557 99.8337 29.5789 99.5553 29.001C99.2769 28.4231 99.1377 27.8211 99.1377 27.195V19.1909H97.0198L97.3479 16.2435H99.1377V13.065L102.836 12.6894V16.2435H106.118V19.1909H102.836V25.7213C102.836 26.4534 102.881 26.9831 102.971 27.3106C103.06 27.6285 103.264 27.8307 103.582 27.9174C103.9 27.9945 104.407 28.033 105.103 28.033H106.118L105.789 30.9804H103.135Z" fill="#F5F8FA"/>
<path d="M116.088 30.9804C114.288 30.9804 112.787 30.6336 111.584 29.9401C110.391 29.237 109.496 28.3123 108.899 27.1661C108.303 26.0103 108.004 24.7485 108.004 23.3808C108.004 22.0612 108.283 20.8428 108.839 19.7255C109.406 18.6082 110.231 17.7124 111.315 17.0382C112.399 16.3543 113.721 16.0124 115.282 16.0124C116.714 16.0124 117.907 16.2965 118.862 16.8648C119.816 17.4331 120.532 18.194 121.01 19.1476C121.487 20.0915 121.726 21.1366 121.726 22.2828C121.726 22.6006 121.706 22.9233 121.666 23.2508C121.626 23.5686 121.566 23.9009 121.487 24.2477H111.852C111.991 25.1434 112.28 25.8706 112.717 26.4293C113.165 26.9783 113.707 27.3829 114.343 27.6429C114.989 27.903 115.68 28.033 116.416 28.033C117.281 28.033 118.086 27.9271 118.832 27.7152C119.578 27.4936 120.264 27.2047 120.89 26.8483L121.069 29.8823C120.503 30.1713 119.797 30.4265 118.951 30.6481C118.106 30.8696 117.152 30.9804 116.088 30.9804ZM111.942 21.8204H117.967C117.967 21.387 117.883 20.9535 117.714 20.5201C117.545 20.077 117.261 19.7062 116.863 19.4076C116.476 19.109 115.949 18.9597 115.282 18.9597C114.328 18.9597 113.577 19.2294 113.03 19.7688C112.484 20.3082 112.121 20.9921 111.942 21.8204Z" fill="#F5F8FA"/>
</svg>
