<svg width="216" height="195" viewBox="0 0 216 195" fill="none" xmlns="http://www.w3.org/2000/svg">
<circle cx="71.5" cy="67.5" r="126.5" stroke="#253341" stroke-width="2"/>
<circle cx="88.5" cy="41.5" r="126.5" stroke="#1D9BF0" stroke-width="2"/>
<path d="M24 48.0716H30.9779V75.9273H24V48.0716Z" fill="#1D9BF0"/>
<path d="M44.6087 56.087L39.9177 60.6729L31.5553 52.6014L36.2463 48.0155L44.6087 56.087Z" fill="#1D9BF0"/>
<path d="M44.5442 55.9559L44.5442 65.11L39.5995 60.4436L44.5442 55.9559Z" fill="#1D9BF0"/>
<path d="M30.8346 48L36.2831 48L31.6949 52.5749L30.8346 51.8785V48Z" fill="#1D9BF0"/>
<path d="M47.6103 48.0716H54.5882V76.2059H47.6103V48.0716Z" fill="#1D9BF0"/>
<path d="M47.6103 76.113L42.4963 76.113L47.1087 71.6118L47.9578 72.321L47.6103 76.113Z" fill="#1D9BF0"/>
<path d="M34.0846 68.2206L33.9058 58.9268L38.8324 63.6112L34.0846 68.2206Z" fill="#1D9BF0"/>
<path d="M47.0902 71.6494L42.3992 76.2353L34.0368 68.1638L38.7278 63.5779L47.0902 71.6494Z" fill="#1D9BF0"/>
<path d="M70.6719 76.2353C68.8722 76.2353 67.3708 75.8886 66.1677 75.1951C64.9746 74.4919 64.0797 73.5673 63.4831 72.4211C62.8865 71.2652 62.5883 70.0035 62.5883 68.6357C62.5883 67.3162 62.8667 66.0977 63.4235 64.9804C63.9902 63.8631 64.8155 62.9673 65.8993 62.2931C66.983 61.6092 68.3054 61.2673 69.8665 61.2673C71.2983 61.2673 72.4914 61.5515 73.4459 62.1197C74.4005 62.688 75.1163 63.4489 75.5936 64.4025C76.0709 65.3464 76.3095 66.3915 76.3095 67.5377C76.3095 67.8555 76.2896 68.1782 76.2498 68.5057C76.2101 68.8236 76.1504 69.1559 76.0709 69.5026H66.4362C66.5754 70.3984 66.8637 71.1256 67.3012 71.6842C67.7486 72.2333 68.2905 72.6378 68.9269 72.8979C69.5732 73.1579 70.2642 73.288 71 73.288C71.865 73.288 72.6704 73.182 73.4161 72.9701C74.1618 72.7486 74.8479 72.4596 75.4743 72.1032L75.6533 75.1373C75.0865 75.4262 74.3806 75.6815 73.5354 75.903C72.6903 76.1246 71.7358 76.2353 70.6719 76.2353ZM66.5257 67.0754H72.5511C72.5511 66.6419 72.4666 66.2085 72.2975 65.7751C72.1285 65.332 71.8451 64.9612 71.4474 64.6626C71.0596 64.364 70.5327 64.2147 69.8665 64.2147C68.912 64.2147 68.1613 64.4844 67.6144 65.0238C67.0675 65.5631 66.7046 66.247 66.5257 67.0754Z" fill="#F5F8FA"/>
<path d="M79.2073 75.9464V61.4985H82.6675L82.8166 64.1858L81.9516 63.0877C82.5183 62.6254 83.1944 62.2064 83.9799 61.8308C84.7654 61.4551 85.6802 61.2673 86.7242 61.2673C88.6332 61.2673 90.0501 61.8838 90.9748 63.1166C91.8995 64.3399 92.3618 65.9292 92.3618 67.8844V75.9464H88.663V68.1734C88.663 66.8249 88.4294 65.828 87.9621 65.1827C87.5047 64.5374 86.754 64.2147 85.71 64.2147C84.8648 64.2147 84.1738 64.417 83.6369 64.8215C83.1 65.2164 82.6277 65.7462 82.22 66.4108L82.9061 64.6481V75.9464H79.2073Z" fill="#F5F8FA"/>
<path d="M103.227 76.2353C101.428 76.2353 99.9261 75.8886 98.723 75.1951C97.5299 74.4919 96.635 73.5673 96.0384 72.4211C95.4419 71.2652 95.1436 70.0035 95.1436 68.6357C95.1436 67.3162 95.422 66.0977 95.9788 64.9804C96.5455 63.8631 97.3708 62.9673 98.4546 62.2931C99.5384 61.6092 100.861 61.2673 102.422 61.2673C103.854 61.2673 105.047 61.5515 106.001 62.1197C106.956 62.688 107.672 63.4489 108.149 64.4025C108.626 65.3464 108.865 66.3915 108.865 67.5377C108.865 67.8555 108.845 68.1782 108.805 68.5057C108.765 68.8236 108.706 69.1559 108.626 69.5026H98.9915C99.1307 70.3984 99.419 71.1256 99.8565 71.6842C100.304 72.2333 100.846 72.6378 101.482 72.8979C102.128 73.1579 102.82 73.288 103.555 73.288C104.42 73.288 105.226 73.182 105.971 72.9701C106.717 72.7486 107.403 72.4596 108.03 72.1032L108.209 75.1373C107.642 75.4262 106.936 75.6815 106.091 75.903C105.246 76.1246 104.291 76.2353 103.227 76.2353ZM99.081 67.0754H105.106C105.106 66.6419 105.022 66.2085 104.853 65.7751C104.684 65.332 104.4 64.9612 104.003 64.6626C103.615 64.364 103.088 64.2147 102.422 64.2147C101.467 64.2147 100.717 64.4844 100.17 65.0238C99.6229 65.5631 99.26 66.247 99.081 67.0754Z" fill="#F5F8FA"/>
<path d="M112.658 75.9464V64.4458H110.54L110.868 61.4985H112.658V58.4355C112.658 57.1641 113.045 56.1528 113.821 55.4015C114.606 54.6502 115.73 54.2745 117.191 54.2745C117.669 54.2745 118.106 54.2986 118.504 54.3468C118.912 54.3949 119.279 54.4575 119.608 54.5346L119.279 57.4242C119.13 57.376 118.966 57.3423 118.787 57.323C118.608 57.2941 118.385 57.2797 118.116 57.2797C117.579 57.2797 117.152 57.4194 116.834 57.6987C116.515 57.978 116.356 58.4355 116.356 59.0712V61.4985H119.637V64.4458H116.356V75.9464H112.658Z" fill="#F5F8FA"/>
<path d="M127.135 76.2353C126.2 76.2353 125.439 76.0523 124.853 75.6863C124.266 75.3107 123.834 74.8339 123.555 74.256C123.277 73.678 123.138 73.076 123.138 72.45V64.4458H121.02L121.348 61.4985H123.138V58.3199L126.836 57.9443V61.4985H130.118V64.4458H126.836V70.9763C126.836 71.7083 126.881 72.2381 126.971 72.5656C127.06 72.8834 127.264 73.0857 127.582 73.1724C127.9 73.2494 128.407 73.288 129.103 73.288H130.118L129.789 76.2353H127.135Z" fill="#F5F8FA"/>
<path d="M140.088 76.2353C138.288 76.2353 136.787 75.8886 135.584 75.1951C134.391 74.4919 133.496 73.5673 132.899 72.4211C132.303 71.2652 132.004 70.0035 132.004 68.6357C132.004 67.3162 132.283 66.0977 132.839 64.9804C133.406 63.8631 134.231 62.9673 135.315 62.2931C136.399 61.6092 137.721 61.2673 139.282 61.2673C140.714 61.2673 141.907 61.5515 142.862 62.1197C143.816 62.688 144.532 63.4489 145.01 64.4025C145.487 65.3464 145.726 66.3915 145.726 67.5377C145.726 67.8555 145.706 68.1782 145.666 68.5057C145.626 68.8236 145.566 69.1559 145.487 69.5026H135.852C135.991 70.3984 136.28 71.1256 136.717 71.6842C137.165 72.2333 137.707 72.6378 138.343 72.8979C138.989 73.1579 139.68 73.288 140.416 73.288C141.281 73.288 142.086 73.182 142.832 72.9701C143.578 72.7486 144.264 72.4596 144.89 72.1032L145.069 75.1373C144.503 75.4262 143.797 75.6815 142.951 75.903C142.106 76.1246 141.152 76.2353 140.088 76.2353ZM135.942 67.0754H141.967C141.967 66.6419 141.883 66.2085 141.714 65.7751C141.545 65.332 141.261 64.9612 140.863 64.6626C140.476 64.364 139.949 64.2147 139.282 64.2147C138.328 64.2147 137.577 64.4844 137.03 65.0238C136.484 65.5631 136.121 66.247 135.942 67.0754Z" fill="#F5F8FA"/>
</svg>
