<svg width="255" height="255" viewBox="0 0 255 255" fill="none" xmlns="http://www.w3.org/2000/svg">
<circle cx="127.5" cy="127.5" r="126.5" stroke="#1D9BF0" stroke-width="2"/>
<path d="M67 114.072H73.9779V141.927H67V114.072Z" fill="#1D9BF0"/>
<path d="M87.6087 122.087L82.9177 126.673L74.5553 118.601L79.2463 114.016L87.6087 122.087Z" fill="#1D9BF0"/>
<path d="M87.5442 121.956L87.5442 131.11L82.5995 126.444L87.5442 121.956Z" fill="#1D9BF0"/>
<path d="M73.8346 114L79.2831 114L74.6949 118.575L73.8346 117.879V114Z" fill="#1D9BF0"/>
<path d="M90.6103 114.072H97.5882V142.206H90.6103V114.072Z" fill="#1D9BF0"/>
<path d="M90.6103 142.113L85.4963 142.113L90.1087 137.612L90.9578 138.321L90.6103 142.113Z" fill="#1D9BF0"/>
<path d="M77.0846 134.221L76.9058 124.927L81.8324 129.611L77.0846 134.221Z" fill="#1D9BF0"/>
<path d="M90.0902 137.649L85.3992 142.235L77.0368 134.164L81.7278 129.578L90.0902 137.649Z" fill="#1D9BF0"/>
<path d="M113.672 142.235C111.872 142.235 110.371 141.889 109.168 141.195C107.975 140.492 107.08 139.567 106.483 138.421C105.887 137.265 105.588 136.003 105.588 134.636C105.588 133.316 105.867 132.098 106.423 130.98C106.99 129.863 107.815 128.967 108.899 128.293C109.983 127.609 111.305 127.267 112.866 127.267C114.298 127.267 115.491 127.551 116.446 128.12C117.4 128.688 118.116 129.449 118.594 130.403C119.071 131.346 119.309 132.391 119.309 133.538C119.309 133.856 119.29 134.178 119.25 134.506C119.21 134.824 119.15 135.156 119.071 135.503H109.436C109.575 136.398 109.864 137.126 110.301 137.684C110.749 138.233 111.291 138.638 111.927 138.898C112.573 139.158 113.264 139.288 114 139.288C114.865 139.288 115.67 139.182 116.416 138.97C117.162 138.749 117.848 138.46 118.474 138.103L118.653 141.137C118.087 141.426 117.381 141.681 116.535 141.903C115.69 142.125 114.736 142.235 113.672 142.235ZM109.526 133.075H115.551C115.551 132.642 115.467 132.208 115.298 131.775C115.128 131.332 114.845 130.961 114.447 130.663C114.06 130.364 113.533 130.215 112.866 130.215C111.912 130.215 111.161 130.484 110.614 131.024C110.068 131.563 109.705 132.247 109.526 133.075Z" fill="#F5F8FA"/>
<path d="M122.207 141.946V127.498H125.667L125.817 130.186L124.952 129.088C125.518 128.625 126.194 128.206 126.98 127.831C127.765 127.455 128.68 127.267 129.724 127.267C131.633 127.267 133.05 127.884 133.975 129.117C134.899 130.34 135.362 131.929 135.362 133.884V141.946H131.663V134.173C131.663 132.825 131.429 131.828 130.962 131.183C130.505 130.537 129.754 130.215 128.71 130.215C127.865 130.215 127.174 130.417 126.637 130.821C126.1 131.216 125.628 131.746 125.22 132.411L125.906 130.648V141.946H122.207Z" fill="#F5F8FA"/>
<path d="M146.227 142.235C144.428 142.235 142.926 141.889 141.723 141.195C140.53 140.492 139.635 139.567 139.038 138.421C138.442 137.265 138.144 136.003 138.144 134.636C138.144 133.316 138.422 132.098 138.979 130.98C139.546 129.863 140.371 128.967 141.455 128.293C142.538 127.609 143.861 127.267 145.422 127.267C146.854 127.267 148.047 127.551 149.001 128.12C149.956 128.688 150.672 129.449 151.149 130.403C151.626 131.346 151.865 132.391 151.865 133.538C151.865 133.856 151.845 134.178 151.805 134.506C151.765 134.824 151.706 135.156 151.626 135.503H141.991C142.131 136.398 142.419 137.126 142.857 137.684C143.304 138.233 143.846 138.638 144.482 138.898C145.128 139.158 145.82 139.288 146.555 139.288C147.42 139.288 148.226 139.182 148.971 138.97C149.717 138.749 150.403 138.46 151.03 138.103L151.209 141.137C150.642 141.426 149.936 141.681 149.091 141.903C148.246 142.125 147.291 142.235 146.227 142.235ZM142.081 133.075H148.106C148.106 132.642 148.022 132.208 147.853 131.775C147.684 131.332 147.4 130.961 147.003 130.663C146.615 130.364 146.088 130.215 145.422 130.215C144.467 130.215 143.717 130.484 143.17 131.024C142.623 131.563 142.26 132.247 142.081 133.075Z" fill="#F5F8FA"/>
<path d="M155.658 141.946V130.446H153.54L153.868 127.498H155.658V124.436C155.658 123.164 156.045 122.153 156.821 121.401C157.606 120.65 158.73 120.275 160.191 120.275C160.669 120.275 161.106 120.299 161.504 120.347C161.912 120.395 162.279 120.458 162.608 120.535L162.279 123.424C162.13 123.376 161.966 123.342 161.787 123.323C161.608 123.294 161.385 123.28 161.116 123.28C160.579 123.28 160.152 123.419 159.834 123.699C159.515 123.978 159.356 124.436 159.356 125.071V127.498H162.637V130.446H159.356V141.946H155.658Z" fill="#F5F8FA"/>
<path d="M170.135 142.235C169.2 142.235 168.439 142.052 167.853 141.686C167.266 141.311 166.834 140.834 166.555 140.256C166.277 139.678 166.138 139.076 166.138 138.45V130.446H164.02L164.348 127.498H166.138V124.32L169.836 123.944V127.498H173.118V130.446H169.836V136.976C169.836 137.708 169.881 138.238 169.971 138.566C170.06 138.883 170.264 139.086 170.582 139.172C170.9 139.249 171.407 139.288 172.103 139.288H173.118L172.789 142.235H170.135Z" fill="#F5F8FA"/>
<path d="M183.088 142.235C181.288 142.235 179.787 141.889 178.584 141.195C177.391 140.492 176.496 139.567 175.899 138.421C175.303 137.265 175.004 136.003 175.004 134.636C175.004 133.316 175.283 132.098 175.839 130.98C176.406 129.863 177.231 128.967 178.315 128.293C179.399 127.609 180.721 127.267 182.282 127.267C183.714 127.267 184.907 127.551 185.862 128.12C186.816 128.688 187.532 129.449 188.01 130.403C188.487 131.346 188.726 132.391 188.726 133.538C188.726 133.856 188.706 134.178 188.666 134.506C188.626 134.824 188.566 135.156 188.487 135.503H178.852C178.991 136.398 179.28 137.126 179.717 137.684C180.165 138.233 180.707 138.638 181.343 138.898C181.989 139.158 182.68 139.288 183.416 139.288C184.281 139.288 185.086 139.182 185.832 138.97C186.578 138.749 187.264 138.46 187.89 138.103L188.069 141.137C187.503 141.426 186.797 141.681 185.951 141.903C185.106 142.125 184.152 142.235 183.088 142.235ZM178.942 133.075H184.967C184.967 132.642 184.883 132.208 184.714 131.775C184.545 131.332 184.261 130.961 183.863 130.663C183.476 130.364 182.949 130.215 182.282 130.215C181.328 130.215 180.577 130.484 180.03 131.024C179.484 131.563 179.121 132.247 178.942 133.075Z" fill="#F5F8FA"/>
</svg>
